<svg xmlns="http://www.w3.org/2000/svg"  viewBox="0 0 64 64" width="50px" height="50px"><linearGradient id="PrnUf0f3Ehh235HvSBQODa" x1="32" x2="32" y1="3338.359" y2="3383.952" gradientTransform="translate(0 -3329.276)" gradientUnits="userSpaceOnUse"><stop offset="0" stop-color="#1a6dff"/><stop offset="1" stop-color="#c822ff"/></linearGradient><path fill="url(#PrnUf0f3Ehh235HvSBQODa)" d="M50,55H14c-2.76,0-5-2.24-5-5V14c0-2.76,2.24-5,5-5h36c2.76,0,5,2.24,5,5v36	C55,52.76,52.76,55,50,55z M14,11c-1.65,0-3,1.35-3,3v36c0,1.65,1.35,3,3,3h36c1.65,0,3-1.35,3-3V14c0-1.65-1.35-3-3-3H14z"/><linearGradient id="PrnUf0f3Ehh235HvSBQODb" x1="31.921" x2="31.921" y1="49.276" y2="17.561" gradientTransform="matrix(1 0 0 -1 0 65.276)" gradientUnits="userSpaceOnUse"><stop offset="0" stop-color="#6dc7ff"/><stop offset="1" stop-color="#e6abff"/></linearGradient><path fill="url(#PrnUf0f3Ehh235HvSBQODb)" d="M28.84,47.715 c-5.844,0-11.382-3.427-13.821-9.077c-3.238-7.496,0.014-16.093,7.403-19.569l6.014-2.83c1.248-0.589,2.738-0.052,3.326,1.197 s0.052,2.738-1.197,3.326l-6.014,2.83c-4.933,2.321-7.104,8.06-4.942,13.063c2.104,4.872,7.66,7.27,12.647,5.455l8.818-3.207 c3.009-1.094,4.657-4.356,3.754-7.428c-0.49-1.665-1.672-3.045-3.242-3.784c-1.571-0.738-3.389-0.771-4.982-0.087l-7.811,3.348 c-0.491,0.21-0.862,0.603-1.047,1.104c-0.184,0.501-0.153,1.04,0.086,1.518c0.463,0.928,1.563,1.315,2.51,0.89l7.124-3.239 c1.257-0.572,2.739-0.015,3.311,1.242c0.572,1.257,0.015,2.738-1.242,3.311l-7.124,3.238c-3.403,1.544-7.38,0.139-9.051-3.206 c-0.849-1.696-0.961-3.691-0.308-5.474c0.653-1.781,2.027-3.231,3.771-3.979l7.81-3.348c2.908-1.247,6.22-1.188,9.082,0.159 c2.863,1.348,5.018,3.861,5.91,6.897c1.646,5.597-1.359,11.543-6.842,13.537l-8.818,3.207 C32.277,47.423,30.545,47.715,28.84,47.715z"/></svg>